<?xml version="1.0" encoding="utf-8"?>
<!-- Generator: Adobe Illustrator 25.2.2, SVG Export Plug-In . SVG Version: 6.00 Build 0)  -->
<svg version="1.1"
	 id="Laag_1" xmlns:cc="http://creativecommons.org/ns#" xmlns:dc="http://purl.org/dc/elements/1.1/" xmlns:inkscape="http://www.inkscape.org/namespaces/inkscape" xmlns:rdf="http://www.w3.org/1999/02/22-rdf-syntax-ns#" xmlns:sodipodi="http://sodipodi.sourceforge.net/DTD/sodipodi-0.dtd" xmlns:svg="http://www.w3.org/2000/svg"
	 xmlns="http://www.w3.org/2000/svg" xmlns:xlink="http://www.w3.org/1999/xlink" x="0px" y="0px" viewBox="0 0 48 48"
	 style="enable-background:new 0 0 48 48;" xml:space="preserve">
<style type="text/css">
	.st0{fill-rule:evenodd;clip-rule:evenodd;fill:#FF7F50;}
</style>
<path class="st0" d="M17,1.8c-0.6,0-1,0.4-1,1v6c0,0.6,0.4,1,1,1s1-0.4,1-1v-6C18,2.2,17.6,1.8,17,1.8z M7,2.8
	c-0.3,0-0.5,0.1-0.7,0.3c-0.4,0.4-0.4,1,0,1.4l4,4c0.4,0.4,1,0.4,1.4,0c0.4-0.4,0.4-1,0-1.4l-4-4C7.5,2.9,7.3,2.8,7,2.8z M38.6,3.8
	c-0.6,0-1.3,0.1-1.9,0.4L26.1,8.5c-2.5,1.1-3.8,4-2.7,6.5l4.4,10.6c1.1,2.5,4,3.8,6.5,2.7L44.9,24c2.5-1.1,3.8-4,2.7-6.5L43.2,6.8
	C42.4,4.9,40.6,3.8,38.6,3.8z M38.6,5.7c1.2,0,2.3,0.7,2.7,1.9l4.4,10.6c0.6,1.6-0.1,3.3-1.6,3.9l-10.6,4.4
	c-1.6,0.6-3.3-0.1-3.9-1.6l-4.4-10.6c-0.6-1.6,0.1-3.3,1.6-3.9L37.5,6C37.8,5.8,38.2,5.7,38.6,5.7z M6,12.8c-0.6,0-1,0.4-1,1
	s0.4,1,1,1h6c0.6,0,1-0.4,1-1s-0.4-1-1-1H6z M31.5,12.8c-0.8,0-1.5,0.7-1.5,1.5s0.7,1.5,1.5,1.5l0,0c0.8,0,1.5-0.7,1.5-1.5l0,0
	C33,13.4,32.3,12.8,31.5,12.8z M39.5,16.8c-0.8,0-1.5,0.7-1.5,1.5s0.7,1.5,1.5,1.5c0.8,0,1.5-0.7,1.5-1.5S40.3,16.8,39.5,16.8z
	 M9.4,18.8c-1.9,0-3.8,1.2-4.6,3.1L0.4,32.4C-0.7,35,0.5,37.9,3.1,39l10.6,4.4c2.5,1.1,5.5-0.2,6.5-2.7l4.4-10.6
	c1.1-2.5-0.2-5.5-2.7-6.5l-10.6-4.4C10.7,18.9,10,18.7,9.4,18.8z M9.4,20.7c0.4,0,0.8,0.1,1.2,0.2l10.6,4.4c1.6,0.6,2.3,2.4,1.6,3.9
	l-4.4,10.6c-0.6,1.6-2.4,2.3-3.9,1.6L3.9,37.1c-1.6-0.6-2.3-2.4-1.6-3.9l4.4-10.6C7.1,21.4,8.2,20.7,9.4,20.7z M10.5,24.8
	c-0.8,0-1.5,0.7-1.5,1.5s0.7,1.5,1.5,1.5s1.5-0.7,1.5-1.5S11.3,24.8,10.5,24.8z M17.5,27.8c-0.8,0-1.5,0.7-1.5,1.5s0.7,1.5,1.5,1.5
	s1.5-0.7,1.5-1.5S18.3,27.8,17.5,27.8z M12.5,29.8c-0.8,0-1.5,0.7-1.5,1.5c0,0.8,0.7,1.5,1.5,1.5l0,0c0.8,0,1.5-0.7,1.5-1.5l0,0
	C14,30.4,13.3,29.8,12.5,29.8z M7.5,31.8c-0.8,0-1.5,0.7-1.5,1.5s0.7,1.5,1.5,1.5S9,34.1,9,33.3S8.3,31.8,7.5,31.8z M35,32.8
	c-0.5,0-1,0.5-1,1c0,0.6,0.4,1,1,1h6c0.6,0,1-0.4,1-1s-0.4-1-1-1H35z M14.5,34.8c-0.8,0-1.5,0.7-1.5,1.5s0.7,1.5,1.5,1.5
	s1.5-0.7,1.5-1.5S15.3,34.8,14.5,34.8z M30,37.8c-0.5,0-1,0.5-1,1v6c0,0.6,0.4,1,1,1s1-0.4,1-1v-6C31,38.2,30.6,37.8,30,37.8z
	 M36,38.8c-0.3,0-0.5,0.1-0.7,0.3c-0.4,0.4-0.4,1,0,1.4l0,0l0,0l4,4c0.4,0.4,1,0.4,1.4,0c0.4-0.4,0.4-1,0-1.4l-4-4l0,0l0,0
	C36.5,38.9,36.3,38.8,36,38.8z"/>
</svg>
